<svg width="264" height="110" viewBox="0 0 264 110" fill="none" xmlns="http://www.w3.org/2000/svg">
<g clip-path="url(#clip0_1_2)">
<path fill-rule="evenodd" clip-rule="evenodd" d="M132.5 51.8277C151.002 51.8277 166 42.2107 166 30.3476C166 29.9947 165.987 29.6437 165.96 29.2949C202.936 32.325 232 63.2943 232 101.052V110H32V101.052C32 62.9526 61.592 31.765 99.0454 29.2195C99.0153 29.5931 99 29.9692 99 30.3476C99 42.2107 113.998 51.8277 132.5 51.8277Z" fill="#E6E6E6"/>
<mask id="mask0_1_2" style="mask-type:alpha" maskUnits="userSpaceOnUse" x="32" y="29" width="200" height="81">
<path fill-rule="evenodd" clip-rule="evenodd" d="M132.5 51.8277C151.002 51.8277 166 42.2107 166 30.3476C166 29.9947 165.987 29.6437 165.96 29.2949C202.936 32.325 232 63.2943 232 101.052V110H32V101.052C32 62.9526 61.592 31.765 99.0454 29.2195C99.0153 29.5931 99 29.9692 99 30.3476C99 42.2107 113.998 51.8277 132.5 51.8277Z" fill="white"/>
</mask>
<g mask="url(#mask0_1_2)">
<path d="M264 0H0V110H264V0Z" fill="#086DD7"/>
<g opacity="0.6">
<path d="M132.5 58.7614C154.39 58.7614 172.135 46.7117 172.135 31.8476C172.135 16.9835 154.39 4.93381 132.5 4.93381C110.61 4.93381 92.8649 16.9835 92.8649 31.8476C92.8649 46.7117 110.61 58.7614 132.5 58.7614Z" fill="black" fill-opacity="0.16"/>
</g>
</g>
<path d="M154.512 80.3013C154.264 78.4633 153.26 76.8688 151.435 75.4259L150.385 74.7136L149.683 75.7843C148.786 77.1629 148.335 79.079 148.484 80.9125C148.552 81.5558 148.759 82.7139 149.408 83.7248C148.759 84.0832 147.479 84.5749 145.776 84.5381H113.185L113.121 84.9195C112.815 86.7623 112.82 92.5155 116.482 96.936C119.267 100.295 123.439 102 128.881 102C140.685 102 149.421 96.4582 153.512 86.3809C155.121 86.413 158.585 86.39 160.365 82.9253C160.41 82.8471 160.518 82.6357 160.829 81.9786L161 81.6202L160 80.9401C158.919 80.2003 156.432 79.9292 154.517 80.3013L154.512 80.3013ZM139.244 68H134.288V72.5952H139.244V68ZM139.244 73.5143H134.288V78.1095H139.244V73.5143ZM133.387 73.5143H128.431V78.1095H133.387V73.5143ZM127.53 73.5143H122.574V78.1095H127.53V73.5143ZM121.673 79.0285H116.717V83.6237H121.673V79.0285ZM127.53 79.0285H122.574V83.6237H127.53V79.0285ZM133.387 79.0285H128.431V83.6237H133.387V79.0285ZM139.244 79.0285H134.288V83.6237H139.244V79.0285ZM145.101 79.0285H140.145V83.6237H145.101V79.0285Z" fill="white"/>
</g>
<defs>
<clipPath id="clip0_1_2">
<rect width="264" height="110" fill="white"/>
</clipPath>
</defs>
</svg>
