<svg width="264" height="110" viewBox="0 0 264 110" fill="none" xmlns="http://www.w3.org/2000/svg">
    <path fill-rule="evenodd" clip-rule="evenodd" d="M132.5 51.8277C151.002 51.8277 166 42.2107 166 30.3476C166 29.9947 165.987 29.6437 165.96 29.2949C202.936 32.325 232 63.2943 232 101.052V110H32V101.052C32 62.9526 61.592 31.765 99.0454 29.2195C99.0153 29.5931 99 29.9692 99 30.3476C99 42.2107 113.998 51.8277 132.5 51.8277Z" fill="#E6E6E6"/>
    <mask id="mask0" style="mask-type:alpha" maskUnits="userSpaceOnUse" x="32" y="29" width="200" height="81">
        <path fill-rule="evenodd" clip-rule="evenodd" d="M132.5 51.8277C151.002 51.8277 166 42.2107 166 30.3476C166 29.9947 165.987 29.6437 165.96 29.2949C202.936 32.325 232 63.2943 232 101.052V110H32V101.052C32 62.9526 61.592 31.765 99.0454 29.2195C99.0153 29.5931 99 29.9692 99 30.3476C99 42.2107 113.998 51.8277 132.5 51.8277Z" fill="white"/>
    </mask>
    <g mask="url(#mask0)">
        <rect width="264" height="110" fill="#20BA31"/>
        <g opacity="0.6">
            <ellipse cx="132.5" cy="31.8476" rx="39.6351" ry="26.9138" fill="black" fill-opacity="0.16"/>
        </g>
    </g>
    <path d="M178.68 66H178.286C177.678 66 177.186 66.4861 177.186 67.0862V76.5871C177.186 77.1872 177.678 77.6733 178.286 77.6733H187.901C188.508 77.6733 189 77.1872 189 76.5871V72.6478C189 72.2692 188.8 71.9178 188.473 71.7207L179.253 66.1591C179.08 66.0549 178.882 66 178.68 66Z" fill="#B8FFC0"/>
    <path d="M74 72.6478V76.5871C74 77.1872 74.4919 77.6733 75.0993 77.6733H84.7142C85.3216 77.6733 85.8135 77.1872 85.8135 76.5871V67.0862C85.8135 66.4861 85.3216 66 84.7142 66H84.3201C84.1179 66 83.92 66.0549 83.7474 66.1591L74.5266 71.7207C74.1995 71.9178 74 72.2692 74 72.6478Z" fill="#B8FFC0"/>
    <path d="M113.228 67.0862V67.4757C113.228 67.6755 113.283 67.871 113.389 68.0416L119.017 77.153C119.216 77.4761 119.572 77.6733 119.955 77.6733H124.947C125.555 77.6733 126.046 77.1872 126.046 76.5871V67.0862C126.046 66.4861 125.555 66 124.947 66H114.327C113.72 66 113.228 66.4861 113.228 67.0862Z" fill="#B8FFC0"/>
    <path d="M157.649 97.3522V93.4129C157.649 92.8128 157.157 92.3267 156.55 92.3267H146.935C146.328 92.3267 145.836 92.8128 145.836 93.4129V102.914C145.836 103.514 146.328 104 146.935 104H147.329C147.532 104 147.729 103.945 147.902 103.841L157.123 98.2793C157.45 98.0816 157.649 97.7307 157.649 97.3522Z" fill="#B8FFC0"/>
    <path d="M109.211 67.0862V76.4942C109.211 77.0943 108.719 77.5804 108.112 77.5804H101.932C101.325 77.5804 100.833 78.0665 100.833 78.6667V102.914C100.833 103.514 100.341 104 99.7338 104H89.1136C88.5062 104 88.0143 103.514 88.0143 102.914V67.0862C88.0143 66.4861 88.5062 66 89.1136 66H108.112C108.719 66 109.211 66.4861 109.211 67.0862Z" fill="white"/>
    <path d="M126.046 81.6408V102.914C126.046 103.514 125.554 104 124.947 104H114.326C113.719 104 113.227 103.514 113.227 102.914V81.6408C113.227 81.0407 113.719 80.5546 114.326 80.5546H124.947C125.554 80.5546 126.046 81.0412 126.046 81.6408Z" fill="white"/>
    <path d="M143.636 92.4196V102.914C143.636 103.514 143.144 104 142.536 104H131.905C131.298 104 130.806 103.514 130.806 102.914V67.0862C130.806 66.4861 131.298 66 131.905 66H142.525C143.133 66 143.625 66.4861 143.625 67.0862V92.4196H143.636Z" fill="white"/>
    <path d="M174.986 67.0862V102.914C174.986 103.514 174.494 104 173.886 104H163.266C162.659 104 162.167 103.514 162.167 102.914V78.6667C162.167 78.0665 161.675 77.5804 161.068 77.5804H154.889C154.281 77.5804 153.789 77.0943 153.789 76.4942V67.0862C153.789 66.4861 154.281 66 154.889 66H173.887C174.494 66 174.986 66.4861 174.986 67.0862Z" fill="white"/>
</svg>
